# xmcd
#
# Track frame offsets:
#	150
#	15249
#	27917
#	43218
#	55731
#	69269
#	83120
#	95717
#	109255
#	122967
#	134540
#
# Disc length: 1990 seconds
#
# Revision: 0
# Processed by: cddbd v1.5.1PL0 Copyright (c) Steve Scherf et al.
# Submitted via: dBpowerAMP V4.0
#
DISCID=9207c40b
DTITLE=Tom T. Hall - Greatest Hits Vol. 1
DYEAR=1990
DGENRE=Country
TTITLE0=Homecoming
TTITLE1=Shoeshine Man
TTITLE2=I Miss A Lot Of Trains
TTITLE3=Salute To A Switchblade
TTITLE4=I Washed My Face In The Morning Dew
TTITLE5=Ballad Of Forty Dollars
TTITLE6=The Year That Clayton Delaney Died
TTITLE7=That's How I Got To Memphis
TTITLE8=A Week In A Country Jail
TTITLE9=One Hundred Children
TTITLE10=Me And Jesus
EXTD=
EXTT0=
EXTT1=
EXTT2=
EXTT3=
EXTT4=
EXTT5=
EXTT6=
EXTT7=
EXTT8=
EXTT9=
EXTT10=
PLAYORDER=
